<?xml version="1.0" encoding="utf-8"?>
<!-- Generator: Adobe Illustrator 19.2.1, SVG Export Plug-In . SVG Version: 6.00 Build 0)  -->
<svg version="1.1" xmlns="http://www.w3.org/2000/svg" xmlns:xlink="http://www.w3.org/1999/xlink" x="0px" y="0px"
	 viewBox="0 0 200 92" style="enable-background:new 0 0 200 92;" xml:space="preserve">
<style type="text/css">
	.st0{fill:#9E0B0F;}
	.st1{fill:#FFFFFF;}
	.st2{enable-background:new    ;}
	.st3{fill:#7F7F7F;}
	.st4{fill:#969696;}
	.st5{fill:#808080;}
	.st6{fill:#DEDEDE;}
	.st7{clip-path:url(#SVGID_2_);enable-background:new    ;}
	.st8{clip-path:url(#SVGID_4_);enable-background:new    ;}
	.st9{fill:#858585;}
	.st10{clip-path:url(#SVGID_6_);enable-background:new    ;}
	.st11{clip-path:url(#SVGID_8_);enable-background:new    ;}
	.st12{fill:#949494;}
	.st13{fill:#8F8F8F;}
	.st14{fill:#8A8A8A;}
	.st15{clip-path:url(#SVGID_10_);enable-background:new    ;}
	.st16{clip-path:url(#SVGID_12_);enable-background:new    ;}
	.st17{clip-path:url(#SVGID_14_);enable-background:new    ;}
	.st18{clip-path:url(#SVGID_16_);enable-background:new    ;}
	.st19{clip-path:url(#SVGID_18_);enable-background:new    ;}
	.st20{clip-path:url(#SVGID_20_);enable-background:new    ;}
	.st21{clip-path:url(#SVGID_22_);enable-background:new    ;}
	.st22{fill:#999999;}
	.st23{fill:#9E9E9E;}
	.st24{fill:#A3A3A3;}
	.st25{clip-path:url(#SVGID_24_);enable-background:new    ;}
	.st26{fill:none;stroke:#FFFFFF;stroke-width:2;stroke-miterlimit:10;}
	.st27{clip-path:url(#SVGID_26_);enable-background:new    ;}
	.st28{clip-path:url(#SVGID_28_);enable-background:new    ;}
	.st29{clip-path:url(#SVGID_30_);enable-background:new    ;}
	.st30{fill:none;stroke:#000000;stroke-width:2.8101;stroke-miterlimit:10;}
</style>
<g id="Layer_1">
</g>
<g id="Layer_2">
	<g>
		<g>
			<rect class="st0" width="200" height="92"/>
		</g>
		<g>
			<path class="st1" d="M24.8,69.4v-8.3h7.3V28.7h-7.3v11.4h-8.4V20.5h44.3v19.7h-8.3V28.7h-7.6v32.4h7.3v8.3H24.8z"/>
			<path class="st1" d="M90.8,61.1v8.3H65v-8.3h6.2V28.7H65v-8.3h25.8c6,0,10.6,1.4,13.9,4.2s4.9,6.6,4.9,11.4
				c0,2.7-0.6,5.2-1.7,7.4s-2.6,3.9-4.4,5.1c-1.8,1.2-3.8,2-6.2,2.4c-2.3,0.4-5.2,0.7-8.7,0.7H84v9.5H90.8z M84,43.5h1.9
				c4.4,0,7.2-0.7,8.4-2.1c1.3-1.4,1.9-3.2,1.9-5.3c0-1.8-0.4-3.3-1.3-4.6c-0.9-1.3-1.9-2-3-2.3c-1.1-0.3-3-0.4-5.5-0.4H84V43.5z"/>
			<path class="st1" d="M112.9,69.4v-8.3h6.3V28.7h-6.3v-8.3h24.5l10.7,28.6l10.8-28.6h25v8.3h-6.3v32.4h6.3v8.3h-24.6v-8.3h5.9
				V28.7h-1.2l-15.2,40.6h-5.3l-15.3-40.6h-1.2v32.4h6.4v8.3H112.9z"/>
		</g>
	</g>
</g>
</svg>
