<svg id="Layer_1" data-name="Layer 1" xmlns="http://www.w3.org/2000/svg" viewBox="0 0 50.51 50.51"><defs><style>.cls-1{fill:#900;}.cls-2{fill:#fff;}</style></defs><title>TPMRedes_Artboard 8</title><circle class="cls-1" cx="25.25" cy="25.25" r="25.25"/><path class="cls-2" d="M28,33.58v4.29H14.66V33.58h3.23V16.75H14.66V12.46H28q4.68,0,7.22,2.19a7.38,7.38,0,0,1,2.55,5.9,8.23,8.23,0,0,1-.9,3.84A6.88,6.88,0,0,1,34.63,27a8.63,8.63,0,0,1-3.2,1.26,25,25,0,0,1-4.5.34H24.51v4.93Zm-3.54-9.17h1q3.4,0,4.37-1.1a4,4,0,0,0,1-2.75,4.06,4.06,0,0,0-.68-2.37A2.78,2.78,0,0,0,28.62,17a12.65,12.65,0,0,0-2.87-.23H24.51Z"/></svg>